<?xml version="1.0" standalone="no"?>
<!DOCTYPE svg PUBLIC "-//W3C//DTD SVG 20010904//EN"
 "http://www.w3.org/TR/2001/REC-SVG-20010904/DTD/svg10.dtd">
<svg version="1.0" xmlns="http://www.w3.org/2000/svg"
 width="3840.000000pt" height="2160.000000pt" viewBox="0 0 3840.000000 2160.000000"
 preserveAspectRatio="xMidYMid meet">

<g transform="translate(0.000000,2160.000000) scale(0.100000,-0.100000)"
fill="#000000" stroke="none">
<path d="M0 17395 l0 -4204 128 5 c70 2 647 14 1282 25 1017 18 1156 22 1165
36 33 51 180 242 245 318 117 136 343 352 466 443 180 134 378 245 548 306
204 74 353 104 551 111 l120 5 -95 -19 c-567 -111 -1044 -441 -1482 -1024 -54
-72 -98 -135 -98 -139 0 -11 148 -10 1235 11 910 18 960 20 973 38 7 10 54 77
104 148 121 173 197 264 352 422 71 73 128 134 125 136 -339 253 -678 391
-1029 420 l-35 3 30 9 c43 12 341 -10 458 -35 197 -41 407 -127 600 -244 69
-42 103 -57 112 -50 220 160 452 279 655 333 155 42 250 52 515 58 235 5 272
3 380 -16 718 -125 1352 -741 1794 -1744 32 -73 73 -171 91 -219 l33 -88 96 0
c53 0 1065 11 2249 26 1185 14 2156 23 2159 21 3 -3 -5 -32 -17 -64 l-22 -58
34 -28 c18 -15 38 -26 44 -25 6 2 72 71 147 153 76 83 141 150 146 150 5 0 47
-31 95 -68 l87 -68 -70 -79 c-72 -82 -90 -117 -75 -150 14 -30 568 -461 575
-447 4 7 10 32 14 57 4 25 23 117 42 205 90 417 207 824 327 1134 20 52 34 96
32 99 -3 2 -279 -1 -613 -7 -334 -6 -1258 -22 -2053 -36 -795 -13 -1520 -26
-1612 -28 -93 -2 -168 0 -168 4 0 3 22 27 50 53 l49 46 83 0 c181 -1 4216 71
4266 76 51 5 53 7 69 47 28 69 177 367 225 447 256 430 514 689 805 809 129
53 203 63 468 65 207 1 250 -2 315 -18 305 -78 587 -332 848 -764 80 -132 193
-354 242 -474 13 -32 29 -58 35 -58 5 0 35 62 65 138 30 75 98 225 151 332
152 303 289 502 458 663 127 120 234 187 366 229 70 22 406 43 520 33 182 -16
339 -100 508 -272 143 -146 248 -298 383 -558 l73 -140 343 7 c738 16 2400 50
4003 83 924 19 1896 39 2160 45 264 5 806 17 1205 25 399 8 1038 22 1420 30
382 8 711 15 731 15 l36 0 28 138 c107 526 239 862 365 927 18 9 88 16 221 21
169 6 199 5 226 -9 122 -63 233 -354 337 -877 l33 -165 94 -3 c52 -2 418 4
814 13 828 17 983 18 969 6 -5 -4 -423 -16 -929 -26 -506 -9 -925 -18 -931
-20 -11 -3 -4 -88 8 -101 3 -2 404 3 891 13 488 9 889 14 892 11 3 -3 3 -17 0
-31 -6 -22 -14 -27 -48 -31 -23 -3 -419 -12 -881 -20 -461 -8 -840 -17 -842
-18 -2 -2 8 -80 21 -174 46 -326 91 -760 125 -1209 11 -148 23 -294 26 -322 4
-42 2 -53 -9 -53 -16 0 -44 -28 -49 -49 -2 -12 40 -21 212 -45 l215 -31 13
-165 c8 -91 16 -167 18 -169 3 -3 379 -117 967 -292 81 -24 107 -47 107 -92 0
-32 -4 -36 -57 -60 l-58 -25 340 -1 341 -1 17 528 c68 2081 212 3418 377 3499
17 9 84 13 212 13 184 0 188 0 202 -22 137 -212 256 -1492 306 -3283 5 -203
13 -453 16 -554 l6 -184 1232 6 c677 4 1417 7 1644 7 l412 0 0 5180 0 5180
-19200 0 -19200 0 0 -4205z m31998 -5242 c-10 -2 -26 -2 -35 0 -10 3 -2 5 17
5 19 0 27 -2 18 -5z m70 -10 c-10 -2 -26 -2 -35 0 -10 3 -2 5 17 5 19 0 27 -2
18 -5z m70 -10 c-10 -2 -26 -2 -35 0 -10 3 -2 5 17 5 19 0 27 -2 18 -5z m70
-10 c-10 -2 -26 -2 -35 0 -10 3 -2 5 17 5 19 0 27 -2 18 -5z m70 -10 c-10 -2
-26 -2 -35 0 -10 3 -2 5 17 5 19 0 27 -2 18 -5z m65 -10 c-7 -2 -21 -2 -30 0
-10 3 -4 5 12 5 17 0 24 -2 18 -5z m402 -440 c590 -175 680 -203 695 -218 8
-9 10 -15 3 -15 -6 0 -16 7 -23 15 -7 8 -17 15 -23 15 -9 0 -228 65 -822 242
-110 33 -202 62 -205 65 -8 9 41 -4 375 -104z"/>
<path d="M31102 14928 c-70 -169 -155 -494 -207 -792 l-7 -39 248 7 c136 3
250 8 252 11 14 14 -84 440 -143 625 -41 127 -95 260 -106 260 -4 0 -21 -33
-37 -72z"/>
<path d="M19353 14796 c-203 -98 -370 -263 -554 -543 -80 -123 -246 -453 -312
-623 -70 -180 -75 -160 40 -160 133 -1 1947 32 1951 35 1 1 -14 46 -35 99
l-36 98 -216 -6 c-404 -12 -1283 -27 -1288 -23 -2 3 12 18 32 33 l37 28 341 7
c188 4 505 10 703 14 l362 7 -21 51 -21 50 -200 -6 c-380 -12 -963 -17 -916
-7 25 5 281 14 569 19 288 6 526 13 529 16 7 7 -71 163 -143 285 -187 313
-380 513 -597 615 -110 52 -139 53 -225 11z"/>
<path d="M16548 14741 c-309 -99 -625 -410 -881 -866 -94 -168 -226 -449 -216
-460 3 -2 340 2 749 10 410 8 934 17 1165 20 231 4 425 8 432 10 13 4 6 24
-87 220 -136 290 -331 578 -509 754 -171 168 -320 260 -501 312 -78 23 -80 23
-152 0z"/>
<path d="M34571 14600 c-1 -8 -6 -44 -11 -80 -13 -92 -57 -567 -75 -815 -43
-609 -75 -1324 -101 -2238 l-7 -237 198 2 197 3 -1 150 c-2 192 -17 684 -36
1130 -34 795 -76 1380 -136 1905 -19 167 -26 213 -28 180z"/>
<path d="M6786 14484 c-178 -33 -438 -140 -611 -252 -78 -51 -265 -192 -283
-215 -11 -12 3 -28 82 -96 159 -137 405 -415 492 -556 l29 -47 352 5 353 5 52
-41 52 -42 -179 -6 c-99 -4 -265 -7 -369 -8 -153 -1 -187 -3 -183 -14 3 -8 42
-76 87 -153 88 -150 193 -361 266 -532 25 -59 49 -110 53 -115 4 -4 338 -3
742 3 404 5 852 10 997 10 152 1 262 5 262 10 0 31 -130 331 -222 515 -206
408 -414 705 -680 967 -324 319 -649 496 -1033 562 -107 19 -153 19 -259 0z"/>
<path d="M31065 14080 l-180 -5 -6 -30 c-4 -16 -7 -40 -8 -52 l-1 -23 263 6
c144 3 267 7 273 9 8 2 9 17 1 54 l-10 51 -76 -2 c-42 -1 -157 -5 -256 -8z"/>
<path d="M30200 14063 c-41 -1 -325 -7 -630 -13 -305 -6 -874 -17 -1265 -25
-1106 -23 -5937 -123 -6850 -141 -451 -9 -822 -18 -824 -20 -2 -1 5 -23 14
-48 l18 -46 86 0 c47 0 293 4 546 10 253 5 917 19 1475 30 4165 83 5627 112
6600 131 613 12 1118 25 1122 28 3 3 9 27 13 54 l7 47 -118 -2 c-66 -1 -153
-3 -194 -5z"/>
<path d="M30900 13901 l-45 -6 -27 -185 c-65 -450 -130 -1113 -168 -1720 -13
-210 -40 -706 -40 -742 l0 -28 520 0 520 0 0 59 c0 142 -39 818 -71 1216 -39
506 -102 1066 -150 1353 l-11 62 -242 -2 c-132 0 -261 -4 -286 -7z"/>
<path d="M30310 13893 c-69 -2 -822 -16 -1675 -33 -852 -16 -1777 -34 -2055
-40 -1518 -31 -5620 -110 -5740 -110 -90 0 -140 -4 -140 -10 0 -15 61 -173 70
-184 5 -4 389 -1 862 8 1703 32 2198 39 2204 34 3 -3 -6 -29 -20 -57 l-26 -51
-148 0 c-81 0 -502 -7 -937 -15 -434 -8 -947 -17 -1140 -20 -512 -8 -755 -16
-755 -25 0 -5 5 -21 11 -37 84 -217 248 -896 309 -1285 8 -47 18 -78 25 -78 6
0 198 68 425 150 227 83 423 150 435 150 27 0 38 -13 52 -63 11 -38 9 -43
-172 -395 l-184 -357 92 -12 c363 -46 614 -239 667 -511 8 -40 11 -102 7 -170
-10 -180 -55 -286 -175 -413 -80 -85 -152 -136 -269 -190 -135 -62 -242 -90
-368 -96 -88 -4 -123 -2 -170 12 -64 18 -132 60 -163 100 -20 25 -20 23 -25
-568 -5 -575 -10 -707 -42 -1117 -133 -1681 -542 -3091 -1083 -3730 -157 -186
-343 -314 -508 -351 -38 -9 -119 -12 -229 -11 -190 2 -315 15 -390 39 -316
101 -616 454 -863 1013 -56 128 -129 310 -149 374 l-9 29 -14 -34 c-29 -74
-190 -389 -245 -479 -257 -425 -526 -679 -828 -782 -85 -29 -105 -32 -249 -36
-193 -5 -397 11 -498 39 -189 53 -404 201 -568 389 -560 645 -960 1878 -1101
3395 -30 318 -42 512 -49 817 -4 152 -9 279 -12 281 -5 5 -4133 47 -4597 47
l-223 0 0 -79 c0 -92 -24 -399 -45 -584 -77 -655 -224 -1268 -438 -1817 -46
-118 -151 -357 -162 -368 -10 -10 -166 152 -161 168 2 8 27 71 55 139 292 706
457 1494 516 2452 l6 96 -728 6 c-400 4 -848 7 -994 7 l-266 0 -7 -117 c-94
-1661 -693 -3122 -1581 -3858 -38 -32 -71 -62 -73 -65 -1 -4 35 -39 80 -77
264 -223 498 -345 808 -420 l95 -23 -120 5 c-312 14 -632 135 -919 349 l-89
67 -83 -50 c-184 -111 -363 -185 -559 -231 -178 -42 -310 -54 -520 -46 -299
12 -434 31 -620 87 -1131 345 -2014 1834 -2210 3729 -35 345 -48 849 -30 1181
l7 136 -128 6 c-71 4 -434 7 -806 7 l-678 0 0 -240 0 -240 60 0 60 0 0 -110 0
-110 -60 0 -60 0 0 -208 0 -208 46 -38 46 -39 499 -7 c275 -4 502 -9 505 -12
8 -9 32 -202 25 -210 -3 -3 -206 -3 -451 2 -278 5 -449 4 -457 -2 -7 -6 -19
-5 -33 2 -11 6 -35 10 -53 8 -27 -3 -38 -13 -79 -78 -26 -41 -47 -78 -47 -82
-1 -3 50 -34 113 -69 63 -34 117 -68 121 -77 5 -15 -72 -162 -85 -162 -4 0
-39 18 -79 39 l-71 39 0 -4204 0 -4204 19200 0 19200 0 0 5485 0 5485 -1127 0
c-1019 -1 -1125 -2 -1100 -16 16 -9 26 -21 24 -27 -3 -7 -40 -92 -82 -190 -42
-99 -74 -181 -71 -184 3 -3 114 -48 248 -100 134 -52 245 -96 247 -98 2 -3
-166 -270 -186 -294 -1 -2 -53 14 -113 37 -124 47 -139 49 -168 25 -12 -11
-119 -247 -252 -557 -218 -510 -230 -541 -220 -572 16 -47 46 -67 171 -116 60
-23 109 -45 109 -49 0 -10 -111 -273 -119 -281 -3 -3 -116 38 -251 92 -135 54
-248 96 -252 92 -4 -4 -39 -80 -77 -170 l-71 -163 0 -202 c0 -378 -28 -1280
-60 -1962 -67 -1409 -172 -2308 -285 -2459 -16 -22 -55 -23 -297 -10 -137 8
-143 11 -182 115 -114 302 -211 1233 -271 2579 -45 1022 -58 1828 -54 3275 l4
1225 -390 0 -390 0 50 -42 c112 -93 277 -279 262 -294 -3 -3 -13 8 -21 24 -21
42 -161 188 -245 256 l-69 57 -62 -3 -61 -3 83 -62 c119 -88 218 -182 281
-266 64 -86 86 -125 103 -192 39 -147 -13 -263 -145 -323 -48 -22 -72 -26
-166 -28 l-110 -2 100 7 c199 15 300 101 298 256 -1 163 -151 354 -437 559
l-79 56 -231 -1 c-238 0 -252 -3 -151 -35 32 -10 35 -13 14 -13 -14 -1 -48 11
-77 25 -34 17 -63 24 -89 22 l-38 -3 45 -46 c52 -54 116 -73 206 -63 l54 7 1
-44 c3 -87 -9 -99 -88 -99 l-54 0 24 -32 c42 -58 40 -60 -10 -11 l-48 48 60 3
c71 4 85 13 85 58 l0 34 -63 0 c-35 0 -84 7 -109 16 -50 17 -114 72 -128 110
-9 23 -12 24 -125 24 -90 0 -115 -3 -109 -12 6 -10 4 -10 -7 0 -7 7 -40 12
-76 12 l-64 0 8 -102 c13 -172 9 -2174 -5 -2553 -43 -1149 -100 -1933 -193
-2680 -129 -1035 -310 -1663 -492 -1713 -32 -9 -358 2 -407 13 -184 43 -371
672 -499 1680 -88 693 -139 1382 -182 2430 -17 443 -23 1804 -9 2378 6 287 13
527 13 532 1 7 -189 11 -550 13 l-551 2 4 63 c11 152 16 187 27 188 36 4 118
5 578 7 l505 2 17 333 c40 753 111 1531 193 2092 13 94 27 189 30 211 6 39 5
41 -17 40 -13 0 -80 -2 -149 -3z m-2575 -1984 c-137 -9 -276 -44 -384 -98 -45
-22 -79 -36 -75 -30 4 7 43 29 88 49 131 61 326 102 436 90 32 -3 13 -6 -65
-11z m-580 -68 c33 -7 26 -8 -45 -9 -200 -3 -485 -88 -631 -189 -24 -17 -64
-50 -88 -74 -25 -24 -36 -33 -25 -19 56 75 170 152 296 200 92 36 265 79 358
90 87 10 89 10 135 1z m1123 -16 c-7 -7 -311 -65 -316 -60 -5 5 8 8 158 39
113 24 168 31 158 21z m-384 -65 c60 -13 91 -51 90 -105 0 -25 0 -45 0 -45 1
0 70 14 155 30 161 31 202 36 186 21 -9 -7 -314 -71 -342 -71 -9 0 -13 16 -13
49 0 42 -4 53 -30 74 -54 46 -183 44 -367 -4 -77 -20 -200 -73 -237 -102 -18
-13 -22 -12 -50 18 -39 41 -92 50 -211 35 -106 -13 -293 -60 -377 -96 -143
-59 -245 -138 -313 -239 -20 -31 -46 -57 -58 -60 -12 -3 -89 -19 -170 -35 -82
-16 -152 -32 -156 -34 -4 -3 -16 -26 -26 -52 -10 -27 -21 -42 -26 -37 -6 6 -1
30 12 60 l21 51 175 34 176 33 37 56 c84 123 229 218 425 278 254 77 430 89
495 34 l29 -24 73 34 c166 79 393 123 502 97z m-307 -216 c-8 -8 -149 -35
-155 -29 -2 2 6 7 19 10 107 24 148 30 136 19z m103 -48 c0 -12 -11 -43 -23
-71 l-24 -50 -202 -39 c-111 -21 -204 -36 -207 -34 -2 3 -1 13 2 22 4 11 9 14
13 7 5 -7 67 1 194 26 l186 37 22 51 c18 41 20 55 11 79 -11 28 -11 28 8 11
11 -10 20 -28 20 -39z m558 3 c-2 -7 -15 -13 -29 -14 -13 -2 -85 -15 -160 -29
-154 -29 -162 -30 -157 -15 2 6 22 13 43 16 22 2 90 14 150 27 127 28 158 31
153 15z m-1188 -100 c0 -18 -33 -114 -48 -136 -7 -11 -452 -105 -460 -98 -2 2
-1 13 3 26 5 15 9 18 15 9 6 -10 44 -5 171 20 278 54 251 44 273 97 21 50 25
95 12 128 -7 17 -5 17 13 -4 12 -13 21 -32 21 -42z m-775 35 c-25 -10 -345
-70 -345 -64 0 8 291 67 330 68 14 0 21 -1 15 -4z m665 -13 c0 -4 -55 -18
-122 -31 -68 -12 -130 -25 -138 -28 -9 -3 -11 -1 -7 4 5 5 65 21 135 35 70 15
128 27 130 28 1 1 2 -3 2 -8z m-1040 -205 c0 -2 -7 -6 -15 -10 -8 -3 -15 -1
-15 4 0 6 7 10 15 10 8 0 15 -2 15 -4z m1660 -26 c0 -16 -33 -80 -42 -80 -11
0 -10 4 8 50 15 37 34 54 34 30z m-1275 -49 c-4 -17 -7 -31 -8 -31 -1 -1 -83
-18 -181 -38 -132 -27 -180 -41 -182 -52 -5 -31 -24 -70 -34 -70 -12 0 -8 19
16 75 l13 33 171 32 c166 32 172 34 186 62 19 36 28 30 19 -11z m-48 -133 c-3
-7 -17 -44 -32 -83 -29 -72 -41 -92 -50 -84 -3 3 7 35 21 70 15 35 30 74 35
87 5 12 14 22 20 22 6 0 9 -6 6 -12z m1782 -215 c13 -126 25 -240 28 -255 l6
-28 188 0 c178 0 189 -1 199 -20 10 -20 7 -20 -157 -21 -92 -1 -172 -2 -178
-4 -5 -1 -16 -3 -23 -3 -7 -1 101 -171 240 -377 139 -207 255 -370 257 -364 2
7 9 1 17 -12 l12 -24 6 25 c2 14 17 167 32 340 14 173 30 333 34 355 l8 40 1
-45 c2 -83 -61 -735 -72 -742 -6 -3 -20 0 -32 8 -11 7 -138 187 -281 400
l-259 386 -22 -89 c-12 -48 -22 -90 -23 -93 0 -3 -5 3 -11 12 -7 12 -3 46 13
114 l22 97 -23 231 c-13 127 -26 246 -28 264 -4 24 -2 32 9 32 11 0 19 -47 37
-227z m317 -44 c297 -251 366 -311 334 -293 -13 7 -332 275 -550 461 -46 40
-90 73 -97 73 -7 0 -13 5 -13 10 0 6 4 10 8 10 4 0 147 -117 318 -261z m4106
-87 c57 -29 80 -48 106 -86 17 -26 32 -61 32 -77 0 -26 8 -32 93 -73 105 -51
247 -95 316 -98 44 -1 45 -2 8 -5 -72 -8 -249 44 -365 107 -45 25 -57 27 -66
16 -6 -7 -20 -18 -30 -24 -18 -9 -15 -12 24 -37 151 -95 395 -151 503 -116 92
31 133 162 81 262 -8 16 -12 29 -9 29 2 0 14 -18 25 -40 28 -56 28 -162 -1
-210 -39 -63 -91 -88 -189 -89 -139 -1 -414 99 -483 177 -18 19 -17 20 12 30
86 30 49 138 -70 202 -48 25 -75 33 -120 34 -89 2 -115 -34 -89 -123 5 -20 6
-31 0 -25 -5 5 -14 30 -21 55 -10 37 -10 53 0 77 16 38 43 50 113 51 47 1 69
-6 130 -37z m595 -568 c-3 -3 -12 -4 -19 -1 -8 3 -5 6 6 6 11 1 17 -2 13 -5z
m-20778 -2283 c148 -43 313 -145 346 -213 l16 -33 -26 33 c-37 45 -139 116
-221 152 -110 50 -207 72 -349 81 l-130 7 145 -3 c112 -2 162 -8 219 -24z
m-382 13 c-3 -3 -12 -4 -19 -1 -8 3 -5 6 6 6 11 1 17 -2 13 -5z m-50 -10 c-3
-3 -12 -4 -19 -1 -8 3 -5 6 6 6 11 1 17 -2 13 -5z m358 -83 c173 -44 376 -174
391 -250 6 -28 10 -32 29 -27 37 9 175 -19 254 -53 106 -45 184 -103 418 -312
114 -102 224 -200 244 -217 l36 -31 102 7 102 8 54 -49 c30 -27 55 -53 55 -58
0 -6 -27 13 -60 42 l-60 52 -102 -7 -103 -6 -230 205 c-256 229 -337 292 -440
340 -125 59 -261 81 -331 54 -27 -10 -28 -9 -11 9 14 15 15 25 8 44 -26 69
-220 182 -375 218 -62 15 -121 21 -200 21 -218 0 -312 -44 -310 -144 1 -25 -2
-34 -7 -26 -5 8 -9 33 -9 55 0 106 118 157 345 149 76 -2 149 -11 200 -24z
m-240 -103 c-16 -6 -36 -15 -42 -21 -23 -17 -14 -71 18 -120 111 -168 420
-316 747 -358 89 -11 96 -14 148 -58 l54 -45 0 -153 0 -153 48 0 c26 0 118 5
205 11 143 10 160 10 175 -5 9 -9 12 -16 7 -16 -6 0 -100 -7 -210 -15 -110 -8
-212 -15 -227 -15 l-28 0 0 164 0 164 -47 40 c-41 33 -57 40 -110 45 -153 16
-337 69 -488 141 -114 55 -161 87 -241 166 -122 120 -132 206 -29 233 37 9 50
6 20 -5z m35 -80 c0 -4 35 -37 77 -73 79 -68 242 -155 353 -190 30 -10 60 -22
65 -28 31 -31 -217 65 -309 120 -34 20 -85 57 -115 81 -52 45 -120 127 -121
147 0 11 49 -46 50 -57z m260 35 c-1 -24 -2 -26 -11 -10 -5 9 -7 22 -4 27 10
17 15 11 15 -17z m-566 -69 c3 -8 2 -12 -4 -9 -6 3 -10 10 -10 16 0 14 7 11
14 -7z m1069 -173 c162 -57 222 -100 537 -381 l225 -201 105 6 105 6 60 -54
c49 -46 58 -58 47 -69 -8 -8 -15 -9 -20 -3 -4 6 -28 29 -54 52 -39 35 -52 41
-80 38 -18 -2 -63 -6 -100 -9 l-68 -5 -237 211 c-131 116 -265 231 -298 256
-121 90 -260 144 -375 145 -83 2 -119 -8 -129 -36 -8 -20 -10 -20 -16 -4 -11
26 1 46 37 63 45 20 184 12 261 -15z m-147 -100 c-3 -4 29 -14 72 -21 42 -7
71 -15 63 -18 -7 -2 -47 1 -88 8 -68 11 -76 10 -87 -6 -10 -13 -15 -14 -21 -4
-5 9 0 20 15 32 23 18 56 25 46 9z m72 -443 c-1 -196 -6 -182 -10 30 -2 78 0
142 5 142 4 0 6 -78 5 -172z m527 13 c-6 -5 -73 -11 -150 -14 -151 -6 -142 -2
25 12 58 4 112 9 120 10 8 0 10 -2 5 -8z m-4360 -141 c66 -66 125 -118 131
-116 7 3 10 -3 7 -15 -7 -27 -22 -16 -153 115 -77 78 -117 112 -122 103 -6 -9
-8 -8 -8 4 0 16 9 29 19 29 4 0 60 -54 126 -120z m324 40 l74 -68 -56 -124
-55 -123 44 -43 c24 -24 44 -45 44 -48 0 -12 -21 0 -65 40 l-49 44 57 124 57
123 -67 62 c-37 34 -70 60 -75 57 -4 -3 -5 2 -2 10 3 9 9 16 13 16 3 -1 39
-32 80 -70z m-108 3 c-12 -20 -14 -14 -5 12 4 9 9 14 11 11 3 -2 0 -13 -6 -23z
m-50 -110 c-11 -21 -20 -35 -21 -31 0 12 33 78 38 74 2 -2 -6 -21 -17 -43z
m4842 -2 c16 -6 41 -11 56 -11 26 0 91 -53 80 -65 -3 -3 -18 9 -34 25 -23 24
-37 30 -71 30 -31 0 -51 7 -73 26 -17 14 -31 31 -31 37 0 6 10 1 23 -11 12
-11 35 -25 50 -31z m-127 -26 c41 -36 82 -65 92 -66 61 -4 77 -9 105 -37 35
-35 34 -38 -8 -47 -22 -5 -26 -4 -15 4 13 9 12 12 -5 25 -11 9 -31 16 -45 16
-14 0 -42 8 -62 18 -39 20 -168 130 -168 144 0 22 39 2 106 -57z m-4273 -224
c-14 -31 -39 -86 -55 -123 l-30 -67 56 -66 c153 -181 216 -318 216 -476 0
-166 -85 -326 -183 -344 -28 -6 -117 9 -117 19 0 1 26 0 58 -2 72 -5 108 11
146 66 44 64 68 139 73 232 10 164 -51 308 -209 491 -32 37 -58 73 -58 80 0 6
23 63 51 125 l52 113 -29 33 c-16 18 -46 48 -66 67 l-38 33 -46 -101 c-26 -56
-49 -100 -51 -97 -2 2 15 43 38 92 22 49 45 100 50 113 10 24 12 23 89 -54
l78 -78 -25 -56z m-673 63 c0 -16 -40 -118 -89 -229 -100 -224 -155 -340 -147
-310 5 17 3 16 -15 -5 -12 -14 -28 -34 -35 -45 -13 -19 -15 -18 -53 19 l-39
38 -52 -17 -52 -17 63 -64 c79 -80 99 -82 133 -16 14 26 25 43 26 39 0 -13
-42 -91 -54 -99 -25 -17 -51 -5 -112 53 l-64 62 -35 -78 -36 -78 35 -36 36
-37 -73 -70 c-261 -254 -554 -429 -852 -510 -139 -38 -274 -54 -445 -53 l-155
2 95 13 c52 8 138 24 190 35 507 114 998 496 1392 1086 81 121 213 344 241
406 l12 28 43 -45 c28 -31 42 -54 42 -72z m5090 -4 c-8 -5 -22 -9 -30 -9 -10
0 -8 3 5 9 27 12 43 12 25 0z m-65 -20 c-11 -5 -27 -9 -35 -9 -9 0 -8 4 5 9
11 5 27 9 35 9 9 0 8 -4 -5 -9z m-58 -16 c-3 -3 -12 -4 -19 -1 -8 3 -5 6 6 6
11 1 17 -2 13 -5z m-4704 -181 c4 -3 3 -11 -2 -17 -5 -6 -37 -73 -71 -149
l-63 -138 54 -55 c64 -66 161 -145 206 -168 51 -26 107 -21 132 10 12 15 21
21 21 15 0 -7 -11 -23 -25 -36 -45 -46 -123 -27 -225 53 -62 49 -180 164 -180
177 0 15 134 315 141 315 3 0 9 -3 12 -7z m-217 -481 c-4 -10 -31 -72 -61
-137 l-55 -120 68 -68 c114 -115 172 -146 230 -121 18 7 32 19 32 25 0 7 3 9
7 6 3 -4 -4 -18 -17 -32 -30 -32 -76 -33 -133 -4 -40 21 -207 174 -207 190 0
17 124 279 133 279 4 0 6 -8 3 -18z m-365 -336 c-14 -36 -22 -33 -9 5 6 16 12
28 14 26 3 -2 0 -16 -5 -31z m-35 -73 c-8 -15 -15 -25 -16 -21 0 12 23 58 27
54 3 -2 -2 -17 -11 -33z m884 11 c14 -8 18 -13 9 -10 -15 4 -15 0 -2 -42 21
-69 13 -194 -16 -252 -44 -86 -91 -120 -164 -120 -45 0 -104 15 -122 32 -5 5
10 2 34 -7 82 -29 139 -18 190 37 68 72 91 215 52 326 -19 57 -18 59 19 36z
m-692 -52 c-33 -83 -104 -232 -110 -232 -14 0 -9 15 33 107 22 48 45 98 50
111 5 12 13 22 20 22 6 0 9 -4 7 -8z m-232 -49 c-8 -15 -15 -25 -16 -21 0 12
23 58 27 54 3 -2 -2 -17 -11 -33z m298 -82 c-9 -23 -18 -40 -20 -38 -2 2 4 22
13 45 9 23 18 40 20 38 2 -2 -4 -22 -13 -45z m-31 -66 c-3 -9 -8 -14 -10 -11
-3 3 -2 9 2 15 9 16 15 13 8 -4z m145 -148 c-47 -104 -68 -137 -68 -108 0 19
112 246 116 235 3 -6 -19 -63 -48 -127z m-183 64 c-21 -43 -29 -39 -8 4 9 19
18 33 21 31 2 -2 -4 -18 -13 -35z"/>
<path d="M5685 13813 c-127 -139 -358 -445 -381 -505 -6 -17 5 -17 147 -13 85
3 301 8 482 11 180 4 327 9 327 13 0 10 -134 187 -214 281 -73 87 -273 290
-284 290 -4 0 -38 -35 -77 -77z"/>
<path d="M19765 13385 c-385 -7 -853 -16 -1041 -20 l-340 -7 -42 -134 c-23
-73 -50 -162 -59 -198 l-17 -64 37 -124 c408 -1359 512 -3288 266 -4938 -80
-540 -197 -1062 -325 -1453 l-36 -108 42 -147 c204 -720 484 -1269 788 -1547
127 -115 271 -199 338 -197 91 4 281 112 412 236 59 55 156 173 229 276 466
662 822 1931 958 3420 71 779 79 1797 19 2485 -4 51 -176 754 -189 772 -1 2
-64 -20 -140 -47 -76 -28 -140 -49 -142 -47 -7 7 -43 146 -43 165 0 30 28 46
145 87 61 21 113 41 117 44 8 7 -36 189 -50 203 -12 12 -39 13 -78 4 -31 -7
-32 -6 -43 38 -6 25 -11 49 -11 55 0 5 56 44 124 86 l123 76 -33 161 c-61 290
-172 704 -236 881 -18 50 -24 57 -47 56 -14 -1 -341 -8 -726 -14z m-240 -5245
c44 -137 68 -198 82 -205 10 -5 154 -82 320 -170 173 -92 304 -167 306 -176 3
-9 2 -21 -2 -26 -3 -6 -99 -50 -213 -99 -113 -49 -205 -90 -203 -92 1 -1 95
24 208 58 213 62 227 65 227 52 0 -12 -119 -235 -132 -247 -10 -10 80 166 109
213 8 13 13 25 11 27 -3 2 -540 -153 -543 -158 -1 -1 19 -150 44 -332 32 -226
51 -329 59 -328 9 2 9 -3 0 -22 -7 -15 -20 -25 -32 -25 -13 0 -91 70 -221 198
-110 108 -282 278 -382 376 -101 98 -183 183 -183 187 0 12 15 11 219 -6 96
-8 176 -14 177 -12 2 1 -89 23 -202 47 -202 43 -236 57 -216 86 5 7 514 395
590 449 1 2 -23 83 -54 181 -71 224 -72 227 -49 222 14 -2 33 -49 80 -198z
m576 -943 c-10 -9 -11 -8 -5 6 3 10 9 15 12 12 3 -3 0 -11 -7 -18z m-61 -114
c-29 -54 -57 -102 -62 -108 -6 -5 5 19 24 55 20 36 45 84 57 108 12 23 24 42
27 42 3 0 -18 -44 -46 -97z m-131 -244 c-34 -63 -66 -118 -72 -124 -5 -5 12
31 38 80 76 143 88 165 92 162 2 -2 -24 -55 -58 -118z m-88 -162 c-10 -9 -11
-8 -5 6 3 10 9 15 12 12 3 -3 0 -11 -7 -18z"/>
<path d="M19524 7877 c-23 -18 -154 -117 -293 -222 -195 -148 -247 -192 -233
-197 35 -15 539 -120 602 -125 l65 -5 270 117 c149 64 273 120 277 123 6 7
-621 342 -638 341 -5 0 -28 -14 -50 -32z"/>
<path d="M19368 7001 c208 -203 378 -368 379 -367 1 0 -20 154 -46 341 l-47
340 -265 21 c-145 12 -294 25 -331 28 l-66 6 376 -369z"/>
<path d="M17579 13346 c-2 -2 -200 -6 -439 -10 -578 -8 -1621 -26 -1689 -29
l-53 -2 -19 -50 c-144 -372 -300 -939 -382 -1383 l-7 -32 110 -55 c61 -30 110
-59 110 -65 0 -5 -63 -79 -140 -165 -77 -85 -140 -158 -140 -163 1 -4 53 -47
116 -97 63 -49 118 -93 120 -97 6 -9 -18 -39 -111 -140 l-52 -56 -58 45 c-31
25 -61 41 -65 36 -4 -4 -10 -38 -14 -75 -6 -64 -5 -67 21 -87 l26 -22 -31 -32
c-29 -30 -33 -41 -41 -127 -19 -181 -41 -547 -47 -801 l-7 -256 219 -6 c120
-4 421 -7 667 -7 l448 0 -3 -107 -3 -107 -585 2 c-322 1 -621 5 -664 9 l-79 6
6 -280 c33 -1375 296 -2691 711 -3558 242 -505 517 -837 825 -998 157 -82 211
-88 351 -39 448 156 872 712 1185 1553 l44 117 -55 217 c-199 796 -314 1729
-333 2715 -27 1409 112 2642 426 3778 l18 63 -37 107 c-20 59 -46 128 -57 155
l-20 47 -134 0 c-74 0 -136 -2 -138 -4z"/>
<path d="M5583 13211 c-188 -4 -344 -9 -348 -12 -14 -14 -121 -214 -191 -357
-82 -167 -197 -442 -189 -450 6 -7 1874 14 1881 20 16 17 -206 476 -325 673
l-78 130 -204 1 c-112 0 -358 -2 -546 -5z"/>
<path d="M4690 13193 c-47 -1 -499 -10 -1005 -18 -841 -15 -921 -18 -933 -33
-19 -25 -171 -287 -174 -301 -3 -14 79 -15 731 -5 l425 7 -22 -29 c-12 -16
-36 -46 -54 -67 l-33 -37 -559 -9 c-307 -5 -563 -14 -568 -19 -5 -5 -39 -78
-77 -163 l-68 -154 46 -4 c25 -1 525 2 1111 9 777 9 1067 15 1072 23 4 7 33
75 65 152 57 139 205 444 283 583 l41 72 -98 -2 c-54 -1 -136 -3 -183 -5z"/>
<path d="M1130 13129 c-481 -9 -932 -18 -1002 -18 l-128 -1 0 -160 0 -160 218
0 c119 0 600 7 1067 15 468 8 891 15 941 15 l90 0 18 37 c10 20 50 91 89 157
40 67 74 124 75 129 5 10 -362 7 -1368 -14z"/>
<path d="M1975 12684 c-16 -2 -468 -8 -1002 -15 l-973 -12 0 -554 0 -555 528
8 527 7 28 -83 c23 -66 26 -85 15 -91 -7 -5 -257 -9 -555 -9 l-543 0 0 -195 0
-195 854 0 854 0 17 93 c26 146 92 428 140 597 37 132 136 435 160 493 6 15 0
17 -68 17 l-76 0 44 78 45 77 62 5 62 5 72 160 c40 88 73 163 73 168 1 6 -194
8 -264 1z"/>
<path d="M13972 12517 c-40 -45 -103 -116 -141 -157 l-68 -74 -36 27 c-40 30
-57 34 -57 12 0 -12 -25 -15 -145 -17 l-145 -3 100 -79 c55 -44 105 -86 112
-93 9 -11 0 -25 -43 -69 -29 -29 -56 -54 -60 -54 -3 0 -57 40 -120 90 l-113
90 -73 -78 c-39 -42 -72 -80 -73 -83 0 -3 52 -47 115 -97 63 -51 115 -96 115
-100 0 -5 -20 -36 -44 -71 -94 -133 -145 -276 -131 -364 11 -64 55 -136 109
-179 89 -70 163 -88 266 -65 36 9 66 14 68 13 1 -2 -10 -30 -25 -62 -22 -48
-27 -73 -28 -139 0 -69 4 -86 27 -126 37 -63 116 -132 197 -172 62 -30 73 -32
171 -32 89 0 113 4 160 24 84 37 209 123 294 202 l77 72 29 -21 29 -22 5 33
c3 17 17 127 31 242 25 197 79 550 91 587 3 12 -71 75 -291 248 -204 160 -297
239 -301 256 -10 40 2 67 70 144 36 41 64 78 63 82 -3 9 -144 118 -154 118 -4
0 -41 -37 -81 -83z m-46 -649 c79 -62 144 -117 144 -122 0 -20 -208 -213 -262
-245 -79 -45 -150 -52 -197 -19 -116 79 -98 196 58 374 36 42 75 87 85 100 11
13 22 24 24 24 2 0 69 -50 148 -112z m469 -370 c85 -67 155 -126 155 -131 0
-18 -156 -181 -229 -239 -103 -82 -163 -111 -233 -112 -64 -1 -97 17 -136 75
-45 65 -20 167 70 296 50 71 195 233 209 233 5 0 79 -55 164 -122z"/>
<path d="M13711 11876 c-126 -145 -174 -243 -151 -310 6 -19 25 -47 41 -60 56
-47 121 -44 219 13 44 25 230 203 230 220 0 10 -255 211 -267 210 -4 0 -37
-33 -72 -73z"/>
<path d="M14153 11513 c-140 -157 -191 -241 -200 -327 -6 -64 6 -97 51 -131
53 -40 114 -39 202 5 54 26 96 61 197 159 70 69 127 131 127 137 0 9 -163 143
-287 236 -7 6 -37 -20 -90 -79z"/>
<path d="M18131 12439 c-1 -4 -19 -98 -41 -209 -117 -588 -184 -1148 -232
-1950 -16 -273 -16 -1201 0 -1495 32 -581 85 -1084 162 -1545 47 -284 63 -361
71 -353 15 15 110 439 155 693 127 708 184 1380 184 2180 0 787 -52 1415 -175
2114 -43 243 -120 594 -124 565z"/>
<path d="M20950 12373 c0 -9 89 -350 102 -391 6 -22 14 -30 20 -24 13 13 -90
409 -108 416 -8 3 -14 2 -14 -1z"/>
<path d="M20755 12248 c-88 -55 -164 -103 -169 -108 -4 -4 -5 -21 -1 -38 6
-28 8 -29 51 -24 64 7 77 -9 109 -139 15 -60 26 -111 24 -113 -2 -1 -62 -23
-133 -49 -71 -26 -131 -49 -134 -52 -8 -7 17 -128 28 -139 5 -5 61 10 137 38
70 25 133 46 139 46 6 0 52 -161 103 -357 53 -203 105 -384 121 -418 35 -73
89 -130 150 -159 63 -29 183 -28 262 3 61 24 162 107 173 142 6 17 -11 119
-19 119 -2 0 -21 -17 -43 -38 -102 -97 -197 -94 -256 10 -27 47 -222 771 -213
793 2 7 37 24 78 38 40 14 185 66 323 116 137 49 251 88 254 86 3 -4 -161
-333 -301 -602 l-42 -81 13 -64 c7 -34 16 -66 19 -70 4 -4 41 -2 82 4 197 27
418 -34 542 -150 96 -89 134 -198 125 -355 -4 -76 -10 -99 -41 -162 -61 -123
-171 -204 -334 -246 -91 -23 -172 -24 -212 -4 -36 18 -36 18 -9 61 40 66 19
172 -43 218 -66 47 -187 11 -235 -71 -66 -113 -4 -269 133 -338 57 -29 65 -30
189 -30 149 0 228 18 379 86 277 125 422 313 442 574 20 250 -101 459 -327
569 -109 52 -214 82 -351 99 -54 6 -98 15 -98 19 0 4 83 170 186 367 170 330
185 363 178 396 -3 20 -12 39 -19 42 -10 3 -811 -280 -966 -342 -13 -5 -24 27
-68 197 -29 112 -56 208 -59 214 -5 7 -66 -25 -167 -88z"/>
<path d="M12375 12300 c-341 -4 -856 -10 -1145 -14 -289 -3 -843 -9 -1232 -13
-390 -3 -708 -8 -708 -11 0 -2 20 -70 44 -150 25 -81 61 -212 82 -292 20 -80
43 -152 51 -161 8 -9 66 -56 128 -105 63 -48 117 -94 119 -101 3 -8 0 -85 -6
-172 l-11 -159 36 -50 c21 -27 37 -59 37 -70 0 -12 -19 -101 -41 -199 -37
-159 -41 -183 -30 -221 13 -51 14 -62 3 -62 -5 0 -15 18 -22 41 -14 41 -45 72
-195 194 -51 41 -44 32 41 -56 l101 -104 12 -155 c7 -85 15 -282 18 -436 l6
-282 341 -6 c338 -6 3007 -26 3971 -29 l500 -2 7 255 c7 281 21 521 44 765
l15 159 -23 18 c-13 10 -27 18 -32 18 -4 0 -36 -26 -70 -57 -92 -86 -172 -142
-266 -187 -84 -40 -87 -41 -195 -41 -108 0 -113 1 -188 38 -87 43 -172 120
-202 182 -29 61 -31 157 -5 234 11 35 20 65 18 67 -2 1 -24 -2 -48 -7 -101
-23 -202 11 -289 98 -132 132 -121 297 36 521 24 35 45 67 46 72 1 4 -50 49
-113 100 -63 51 -117 94 -119 96 -5 4 160 184 169 184 4 0 58 -40 121 -90
l114 -89 43 42 c23 23 41 47 40 53 -2 6 -55 53 -118 103 l-115 91 -175 -2
c-96 -1 -454 -5 -795 -8z"/>
<path d="M7765 12249 c-286 -3 -566 -7 -622 -8 l-102 -1 45 -132 c162 -481
277 -1053 324 -1603 15 -180 30 -493 30 -638 0 -93 3 -129 13 -131 6 -3 453
-7 991 -10 l979 -6 -6 312 c-5 290 -25 592 -48 748 -5 36 -14 101 -20 145 -5
44 -16 87 -23 95 -7 8 -51 58 -98 111 -47 52 -91 105 -97 117 -10 18 -3 55 38
215 l50 193 -38 149 c-35 135 -75 275 -117 408 l-16 47 -381 -2 c-210 -1 -616
-5 -902 -9z"/>
<path d="M5885 12229 c-297 -3 -665 -7 -817 -8 l-278 -1 -15 -36 c-44 -105
-154 -505 -214 -775 -176 -795 -229 -1725 -145 -2589 112 -1163 471 -2222 992
-2924 99 -134 231 -286 246 -286 18 0 222 204 327 325 374 436 681 1016 898
1695 172 541 286 1180 317 1773 l7 137 -420 0 c-325 0 -423 3 -430 13 -11 13
-20 59 -29 140 l-6 47 446 0 446 0 0 153 c0 341 -42 833 -101 1182 -64 381
-168 796 -275 1093 l-26 72 -192 -2 c-105 -1 -434 -5 -731 -9z m211 -1020 c7
-131 16 -204 25 -210 10 -6 34 -140 60 -328 7 -57 15 -87 19 -76 13 38 21 -6
21 -127 1 -68 5 -150 9 -183 l7 -60 2 49 c0 27 3 47 6 45 2 -3 11 -68 20 -145
8 -76 17 -155 19 -174 3 -19 7 -69 10 -110 l5 -75 -14 55 c-8 30 -19 96 -26
145 -12 98 -17 120 -24 113 -5 -5 27 -218 60 -393 34 -184 35 -185 41 -235 3
-25 10 -57 15 -71 12 -32 36 -202 31 -218 -7 -20 -30 -12 -36 12 -3 13 -13 86
-21 163 -9 76 -31 218 -50 314 -19 96 -42 231 -51 300 -8 69 -22 145 -29 170
-27 90 -108 748 -122 984 -5 89 -4 108 7 104 9 -3 15 -22 16 -49z m-91 -244
c31 -338 90 -785 105 -795 4 -3 15 -66 24 -140 10 -74 33 -211 52 -305 19 -93
44 -246 55 -340 10 -93 21 -176 24 -182 2 -7 0 -13 -6 -13 -17 0 -26 40 -43
195 -9 82 -20 153 -24 157 -4 4 -163 9 -352 10 -336 3 -345 4 -348 23 -2 18
-48 30 -425 114 -232 52 -432 100 -444 108 -27 16 -29 31 -5 40 20 8 478 260
504 278 16 10 -3 26 -144 120 -90 60 -158 110 -151 112 6 2 89 -48 185 -112
148 -100 182 -128 238 -195 44 -53 70 -77 80 -73 8 3 27 8 43 11 21 3 37 21
78 89 28 47 47 88 43 92 -5 4 -136 45 -292 91 -286 85 -311 94 -300 105 3 4
143 -35 310 -85 267 -81 319 -93 438 -106 176 -18 210 -24 210 -35 0 -12 -53
-11 -190 6 -63 7 -115 13 -116 12 -2 -5 125 -509 129 -513 2 -3 15 23 27 56
l23 61 208 -3 c180 -3 209 -1 209 12 0 8 -9 65 -19 125 -10 61 -22 139 -26
175 -3 36 -13 85 -20 110 -38 122 -139 1022 -120 1067 10 22 17 -27 40 -272z"/>
<path d="M6142 10715 c0 -16 2 -22 5 -12 2 9 2 23 0 30 -3 6 -5 -1 -5 -18z"/>
<path d="M6152 10640 c0 -19 2 -27 5 -17 2 9 2 25 0 35 -3 9 -5 1 -5 -18z"/>
<path d="M6162 10560 c0 -19 2 -27 5 -17 2 9 2 25 0 35 -3 9 -5 1 -5 -18z"/>
<path d="M6172 10480 c0 -19 2 -27 5 -17 2 9 2 25 0 35 -3 9 -5 1 -5 -18z"/>
<path d="M6182 10400 c0 -19 2 -27 5 -17 2 9 2 25 0 35 -3 9 -5 1 -5 -18z"/>
<path d="M6192 10330 c0 -19 2 -27 5 -17 2 9 2 25 0 35 -3 9 -5 1 -5 -18z"/>
<path d="M5470 10036 c-46 -79 -57 -92 -71 -83 -12 7 -22 6 -38 -5 -20 -14
-18 -18 100 -159 143 -170 136 -162 115 -121 -9 17 -14 32 -11 32 3 0 23 -16
45 -36 22 -20 40 -31 40 -25 0 16 -108 452 -118 473 -5 13 -20 -5 -62 -76z"/>
<path d="M4903 9957 c-139 -78 -249 -144 -245 -148 9 -8 911 -211 921 -207 9
3 -400 491 -414 494 -6 1 -123 -62 -262 -139z"/>
<path d="M3120 12199 c-289 -3 -595 -7 -681 -8 l-157 -1 -66 -202 c-76 -235
-132 -437 -175 -628 -42 -182 -72 -352 -65 -359 3 -3 270 -6 592 -6 l586 0 12
-50 c6 -27 14 -69 17 -92 l7 -43 -624 0 c-586 0 -625 -1 -630 -17 -8 -30 -37
-274 -39 -338 l-2 -60 698 0 697 0 0 -26 c0 -14 3 -59 6 -100 l7 -74 -717 3
c-571 2 -716 0 -716 -10 0 -7 -5 -128 -10 -268 -20 -514 23 -1110 116 -1620
198 -1081 631 -2009 1204 -2580 339 -338 694 -543 1078 -621 341 -69 819 75
1221 369 l33 25 -104 106 c-121 122 -177 189 -274 321 -403 551 -701 1279
-873 2137 -42 206 -95 555 -107 701 -4 45 -10 81 -13 79 -40 -22 -163 -77
-185 -83 -28 -7 -28 -7 -22 -68 3 -34 9 -105 12 -158 7 -96 7 -97 -17 -102
-86 -18 -133 -26 -157 -25 -24 0 -25 1 -7 8 11 5 53 14 94 21 l74 12 -7 92
c-4 50 -9 121 -13 157 l-6 66 64 22 c35 12 88 35 118 52 l53 31 -6 71 c-21
244 -27 440 -24 817 l3 424 -45 14 c-30 9 -85 12 -166 10 l-121 -3 -12 125
c-6 69 -11 137 -11 153 0 32 -4 32 -101 12 -40 -9 -74 -13 -77 -10 -7 6 10 11
102 30 58 11 82 12 87 4 3 -6 9 -54 13 -107 4 -54 9 -118 12 -143 l6 -46 122
1 c66 0 138 -5 158 -11 43 -13 43 -11 47 62 11 267 95 840 171 1175 58 254
144 562 201 718 l19 52 -438 -2 c-240 -1 -673 -5 -962 -9z m354 -1761 c3 -13
8 -61 11 -108 3 -47 8 -106 12 -131 l5 -46 49 10 c50 10 60 20 35 34 -18 10
-35 193 -17 193 6 0 12 17 12 38 1 20 8 -30 16 -112 7 -82 12 -150 10 -152 -6
-6 -119 -26 -123 -21 -2 2 -9 69 -16 150 -8 103 -16 147 -24 147 -7 0 -45 -7
-85 -15 -40 -9 -74 -13 -77 -10 -7 6 10 11 93 28 95 20 94 20 99 -5z m-166
-325 c-3 -15 -34 -24 -163 -49 l-160 -30 2 -40 2 -39 -11 38 c-6 22 -7 42 -2
47 5 4 72 20 149 34 181 35 175 32 176 64 1 17 3 21 6 10 2 -10 3 -26 1 -35z
m-311 -185 c-3 -8 -6 -5 -6 6 -1 11 2 17 5 13 3 -3 4 -12 1 -19z m907 -14 c60
-31 79 -63 82 -136 l2 -63 -7 55 c-14 111 -54 142 -189 148 -89 4 -225 -11
-252 -28 -11 -7 -10 -44 3 -190 9 -100 18 -184 21 -187 8 -8 184 33 249 57 63
24 120 67 149 115 10 16 18 25 18 19 0 -6 -13 -29 -28 -50 -29 -40 -95 -82
-174 -110 -40 -14 -230 -55 -235 -51 -3 4 -33 342 -33 379 l0 35 83 16 c116
22 260 18 311 -9z m-897 -26 c-3 -8 -6 -5 -6 6 -1 11 2 17 5 13 3 -3 4 -12 1
-19z m10 -50 c-3 -7 -5 -2 -5 12 0 14 2 19 5 13 2 -7 2 -19 0 -25z m188 -25
c4 -13 3 -14 -9 -3 -12 9 -30 9 -83 0 -82 -15 -86 -15 -92 1 -2 6 0 9 5 7 5
-3 38 0 74 6 73 14 96 11 105 -11z m12 -75 c-2 -13 -4 -5 -4 17 -1 22 1 32 4
23 2 -10 2 -28 0 -40z m10 -105 c-2 -16 -4 -5 -4 22 0 28 2 40 4 28 2 -13 2
-35 0 -50z m10 -120 c-2 -16 -4 -5 -4 22 0 28 2 40 4 28 2 -13 2 -35 0 -50z
m10 -120 c-2 -16 -4 -5 -4 22 0 28 2 40 4 28 2 -13 2 -35 0 -50z m10 -120 c-2
-16 -4 -5 -4 22 0 28 2 40 4 28 2 -13 2 -35 0 -50z m628 31 c41 -19 65 -54 71
-102 l4 -37 -10 39 c-6 22 -16 46 -23 54 -22 27 -91 52 -145 52 -72 0 -193
-21 -198 -34 -5 -14 21 -325 28 -332 11 -10 191 37 240 63 28 15 61 43 74 63
13 19 24 30 24 25 0 -24 -65 -86 -115 -110 -46 -21 -234 -69 -242 -61 -5 5
-35 367 -31 371 2 3 40 11 84 19 92 18 190 14 239 -10z m-618 -151 c-2 -16 -4
-5 -4 22 0 28 2 40 4 28 2 -13 2 -35 0 -50z m690 -35 c-3 -8 -6 -5 -6 6 -1 11
2 17 5 13 3 -3 4 -12 1 -19z m-680 -85 c-2 -16 -4 -5 -4 22 0 28 2 40 4 28 2
-13 2 -35 0 -50z m10 -105 c-2 -13 -4 -3 -4 22 0 25 2 35 4 23 2 -13 2 -33 0
-45z m-34 -67 c-20 -16 -54 -27 -150 -47 -12 -2 -24 -12 -27 -22 -3 -10 -4 -7
-3 8 2 22 9 25 85 40 45 9 87 21 94 28 7 7 14 12 18 12 3 -1 -5 -9 -17 -19z
m-166 -173 c-2 -13 -4 -3 -4 22 0 25 2 35 4 23 2 -13 2 -33 0 -45z m651 -15
c-1 -35 -1 -36 -5 -7 l-4 31 -46 -8 c-26 -5 -48 -11 -51 -14 -3 -2 0 -64 7
-137 6 -73 11 -140 11 -149 0 -13 -20 -20 -89 -33 -49 -9 -94 -16 -100 -16 -7
0 -10 17 -9 43 1 38 2 39 5 8 l4 -33 47 7 c26 3 64 11 86 16 l38 10 -6 57 c-3
31 -8 101 -12 154 l-7 97 34 4 c19 2 49 5 67 5 31 2 32 1 30 -35z m-302 -64
c1 -54 1 -54 -3 -6 -4 44 -6 48 -26 44 -31 -8 -298 -57 -309 -57 -4 0 -7 12
-7 28 1 16 3 20 6 10 6 -23 10 -22 178 11 77 16 145 28 150 27 6 -2 10 -27 11
-57z m311 -61 c-2 -13 -4 -3 -4 22 0 25 2 35 4 23 2 -13 2 -33 0 -45z m-300
-75 c-2 -16 -4 -5 -4 22 0 28 2 40 4 28 2 -13 2 -35 0 -50z m310 -35 c-2 -13
-4 -3 -4 22 0 25 2 35 4 23 2 -13 2 -33 0 -45z"/>
<path d="M31880 12037 c0 -19 9 -27 38 -39 36 -14 38 -17 34 -53 -3 -25 0 -40
9 -46 24 -15 31 -10 27 21 -3 19 -1 27 5 21 8 -8 28 -171 21 -180 -1 -1 -65
15 -141 38 -76 23 -144 41 -152 41 -10 0 -12 -8 -7 -31 3 -17 6 -41 6 -54 0
-17 9 -24 43 -34 23 -7 79 -24 123 -38 l82 -25 8 -216 9 -217 28 -3 c25 -3 27
-1 27 35 0 21 -7 117 -15 213 -13 160 -13 206 -1 169 3 -8 10 -79 16 -159 6
-80 13 -171 17 -202 l6 -58 135 0 135 0 -7 78 c-21 263 -20 254 0 250 17 -3
20 -19 31 -163 6 -88 12 -161 12 -162 1 -2 75 -3 166 -3 l164 0 143 65 c78 36
150 65 159 65 46 0 19 -22 -81 -66 -60 -27 -110 -52 -110 -55 0 -3 98 -4 218
-2 206 4 220 5 280 30 59 24 62 27 62 59 l0 33 -112 35 c-62 19 -259 78 -438
131 -552 164 -518 152 -524 183 -3 15 -8 81 -12 147 -4 66 -10 129 -14 140 -7
18 -27 23 -181 44 -96 12 -182 25 -191 27 -14 4 -18 -1 -18 -19z"/>
<path d="M21400 11855 c-157 -57 -284 -108 -284 -112 1 -4 43 -168 94 -363
100 -384 119 -432 177 -457 32 -13 41 -13 78 2 26 9 64 38 95 70 28 30 53 55
55 55 10 0 37 -151 31 -174 -9 -36 -70 -101 -124 -133 -50 -29 -160 -63 -207
-63 l-30 0 3 -85 3 -86 38 34 c65 59 172 72 231 29 70 -52 96 -144 62 -224
l-21 -49 27 -10 c34 -13 127 -3 211 23 196 60 309 191 319 370 11 193 -53 317
-212 407 -107 62 -301 93 -441 72 -86 -13 -95 -5 -114 95 l-13 69 161 313 c89
171 161 314 161 317 0 9 -11 5 -300 -100z m-220 -108 c0 -2 7 -54 15 -117 8
-62 13 -115 11 -117 -7 -7 -58 216 -51 226 6 10 25 16 25 8z"/>
<path d="M31730 11913 c-12 -15 -18 -29 -13 -30 80 -25 278 -81 280 -79 1 1 0
18 -3 38 l-6 36 -107 31 c-58 17 -111 31 -118 31 -6 0 -21 -12 -33 -27z"/>
<path d="M14985 11808 c-7 -22 -64 -372 -61 -376 5 -4 257 275 258 285 1 8
-168 102 -185 103 -4 0 -10 -6 -12 -12z"/>
<path d="M9300 11752 c0 -4 79 -237 175 -517 96 -280 176 -511 176 -514 1 -3
14 156 29 354 26 334 27 361 11 376 -35 35 -391 309 -391 301z"/>
<path d="M9202 11508 c-34 -134 -62 -247 -62 -251 0 -12 471 -539 476 -534 3
2 -4 29 -15 58 -11 30 -44 126 -75 214 -156 459 -257 749 -260 752 -2 2 -31
-106 -64 -239z"/>
<path d="M14897 11249 c-9 -66 -15 -125 -12 -129 2 -4 29 -26 60 -50 l55 -43
23 26 c12 13 45 52 74 84 l52 60 -105 82 c-59 45 -112 85 -119 87 -9 4 -17
-29 -28 -117z"/>
<path d="M9690 11058 c0 -38 11 -47 37 -30 9 6 6 16 -12 37 l-24 30 -1 -37z"/>
<path d="M9714 10990 c-12 -5 -24 -12 -27 -17 -7 -11 -21 -289 -14 -283 3 3
19 66 36 140 18 74 34 143 37 153 6 19 0 20 -32 7z"/>
<path d="M9360 10948 c0 -38 11 -47 38 -29 11 6 8 14 -12 37 l-25 29 -1 -37z"/>
<path d="M34563 10962 l-193 -2 0 -142 0 -141 33 42 c76 96 177 158 307 189
52 12 70 20 70 33 0 9 -6 18 -12 20 -7 2 -100 3 -205 1z"/>
<path d="M35123 10963 c-20 -8 -16 -71 5 -77 9 -2 50 -14 90 -26 41 -12 75
-20 77 -18 11 11 52 118 47 122 -7 7 -202 6 -219 -1z"/>
<path d="M35366 10946 c-8 -11 -24 -45 -37 -74 -19 -46 -25 -53 -43 -47 -360
103 -559 106 -725 8 -57 -33 -125 -96 -161 -148 l-28 -41 -7 -265 -8 -264 63
-58 c34 -32 61 -59 59 -61 -2 -1 -29 -9 -59 -17 l-55 -14 -3 -407 -2 -407 77
-45 c43 -25 85 -49 93 -54 12 -7 1 -40 -64 -193 -44 -101 -80 -187 -82 -190
-4 -7 246 -113 250 -107 2 2 38 84 80 183 43 99 79 181 81 183 7 8 185 -64
185 -74 0 -6 -34 -91 -76 -188 -42 -98 -73 -180 -69 -184 14 -14 240 -100 246
-94 4 4 42 89 85 190 42 100 82 182 88 182 6 0 119 -43 250 -95 132 -53 243
-92 247 -88 8 9 110 246 107 248 -2 1 -50 21 -108 44 -58 23 -112 47 -120 54
-30 23 -50 62 -50 97 0 24 70 199 218 545 121 281 226 524 236 542 29 57 72
66 156 33 27 -11 72 -29 100 -40 l50 -20 81 122 c45 67 82 128 83 136 1 10
-74 44 -239 107 -136 53 -241 99 -243 106 -1 8 31 93 73 188 41 96 75 180 75
187 0 25 -78 44 -179 44 l-98 0 -68 -160 c-38 -90 -73 -159 -79 -157 -6 3 -48
19 -93 37 -46 17 -83 35 -83 40 0 4 22 58 49 119 27 61 45 113 40 116 -5 3
-70 5 -144 4 -127 -1 -137 -2 -149 -23z m-81 -465 c102 -29 300 -100 320 -115
16 -12 9 -33 -89 -262 -59 -137 -109 -250 -110 -252 -5 -4 -253 96 -317 129
-183 92 -279 195 -279 298 0 106 62 186 170 222 42 14 229 2 305 -20z m-192
-795 c153 -51 209 -76 203 -92 -13 -33 -189 -439 -192 -443 -6 -7 -192 68
-274 110 -139 72 -220 167 -220 259 0 50 42 133 81 162 55 41 87 48 194 44 82
-3 120 -10 208 -40z"/>
<path d="M34965 10475 c-42 -16 -90 -57 -107 -90 -7 -13 1 -10 23 11 46 43 70
54 140 65 106 17 99 33 99 -241 l0 -238 73 -30 c39 -17 101 -41 137 -55 l65
-24 99 231 c55 127 101 234 103 238 5 9 -190 84 -299 114 -118 32 -274 41
-333 19z"/>
<path d="M34745 9691 c-51 -24 -81 -56 -100 -110 -19 -56 -19 -87 4 -136 17
-38 112 -135 132 -135 5 0 10 84 11 188 l3 187 35 3 c44 5 164 -14 233 -36
l52 -17 5 -195 5 -195 73 168 c39 93 72 172 72 176 0 9 -44 29 -140 64 -157
58 -310 73 -385 38z"/>
<path d="M35692 10958 c-5 -7 -24 -47 -42 -88 -18 -41 -38 -89 -46 -106 l-13
-32 76 -31 c42 -17 77 -30 78 -28 4 4 125 289 125 293 0 11 -168 3 -178 -8z"/>
<path d="M30607 10867 c-3 -51 -12 -395 -18 -763 -20 -1085 8 -2298 76 -3304
79 -1165 213 -2082 369 -2535 38 -111 64 -175 71 -175 11 0 57 105 95 216 251
725 430 2357 481 4374 12 454 6 2117 -7 2228 l-7 52 -527 0 -527 0 -6 -93z"/>
<path d="M14856 10905 c-11 -30 -6 -40 11 -22 12 12 14 20 6 28 -7 7 -12 6
-17 -6z"/>
<path d="M9406 10887 l-28 -12 133 -111 c161 -132 159 -131 159 -105 0 13 -5
19 -14 15 -8 -3 -53 39 -117 110 -57 64 -103 116 -104 116 0 -1 -13 -6 -29
-13z"/>
<path d="M0 10605 l0 -205 814 0 814 0 7 63 c9 91 35 288 41 320 l6 27 -841 0
-841 0 0 -205z"/>
<path d="M34360 10033 l0 -51 38 10 c20 5 38 11 39 12 2 1 -15 20 -37 41 l-40
39 0 -51z"/>
<path d="M34360 8904 c0 -125 2 -225 5 -222 3 3 39 83 80 178 57 131 72 176
63 182 -7 5 -31 18 -53 30 -22 11 -52 29 -67 40 l-28 19 0 -227z"/>
<path d="M0 9035 c0 -9 9 -15 21 -15 18 0 19 2 9 15 -7 8 -16 15 -21 15 -5 0
-9 -7 -9 -15z"/>
<path d="M34797 8886 c-4 -10 -1 -13 7 -10 7 3 43 -6 79 -20 39 -15 69 -21 72
-15 4 5 -2 12 -12 16 -10 3 -40 14 -66 25 -58 22 -73 23 -80 4z"/>
<path d="M34716 8700 c-37 -88 -73 -160 -80 -160 -6 0 -67 23 -136 50 -68 28
-128 50 -133 50 -8 0 -6 -211 14 -1105 25 -1181 79 -2221 149 -2885 11 -102
20 -194 21 -205 2 -52 20 56 43 264 66 584 122 1459 156 2416 18 511 45 1735
38 1735 -2 0 -34 -72 -72 -160z"/>
<path d="M0 8748 c0 -57 3 -56 41 15 l19 37 -30 0 c-30 0 -30 -1 -30 -52z"/>
<path d="M0 8517 l0 -85 69 -36 69 -36 38 61 c35 59 36 62 18 73 -10 6 -58 33
-106 59 l-88 48 0 -84z"/>
<path d="M34800 8461 c0 -14 277 -127 287 -117 10 9 31 0 -239 107 -27 10 -48
15 -48 10z"/>
</g>
</svg>
