<svg width="31" height="32" viewBox="0 0 31 32" fill="none" xmlns="http://www.w3.org/2000/svg">
<path d="M21.1384 8.7168C18.6972 8.7168 17.6654 9.88172 15.9653 9.88172C14.2221 9.88172 12.8925 8.72527 10.777 8.72527C8.70632 8.72527 6.49818 9.98949 5.09591 12.1431C3.12693 15.1802 3.46114 20.9 6.65015 25.7729C7.79085 27.5172 9.31421 29.4735 11.3123 29.4947H11.3486C13.0851 29.4947 13.6009 28.3576 15.9907 28.3443H16.027C18.3811 28.3443 18.8534 29.488 20.5826 29.488H20.6189C22.617 29.4668 24.2221 27.2992 25.3628 25.5615C26.1838 24.3119 26.4889 23.6846 27.1186 22.2708C22.5056 20.5198 21.7645 13.9801 26.3267 11.4729C24.9341 9.72914 22.9772 8.71922 21.1324 8.71922L21.1384 8.7168Z" fill="white"/>
<path d="M20.6008 2.37115C19.1477 2.46985 17.4524 3.395 16.4594 4.60291C15.5585 5.6976 14.8174 7.32147 15.108 8.89629H15.2243C16.7719 8.89629 18.3558 7.96447 19.2809 6.77049C20.1722 5.63403 20.8479 4.02348 20.6008 2.37115Z" fill="white"/>
</svg>
