<svg width="25" height="25" viewBox="0 0 50 50" fill="none" xmlns="http://www.w3.org/2000/svg">
<path d="M13.3333 66.6667V93.3333H0V106.667H20V120H33.3333V106.667H46.6667V120H60V106.327C73.12 104.667 83.3333 93.56 83.3333 80C83.3333 71.2 79 63.44 72.4 58.58C77.2688 53.621 79.9977 46.9496 80 40C80 27.6133 71.4733 17.26 60 14.28V0H46.6667V13.3333H33.3333V0H20V13.3333H0V26.6667H13.3333V66.6667ZM56.6667 93.3333H26.6667V66.6667H56.6667C64.02 66.6667 70 72.6467 70 80C70 87.3533 64.02 93.3333 56.6667 93.3333ZM26.6667 26.6667H53.3333C60.6867 26.6667 66.6667 32.6467 66.6667 40C66.6667 47.3533 60.6867 53.3333 53.3333 53.3333H26.6667V26.6667Z" fill="#0AB7A6" fill-opacity="0.09"/>
</svg>
