<svg width="124" height="120" viewBox="0 0 124 120" fill="none" xmlns="http://www.w3.org/2000/svg">
<path d="M117.705 60V108C117.705 111.183 116.524 114.235 114.422 116.485C112.32 118.736 109.468 120 106.495 120H16.815C13.842 120 10.9906 118.736 8.88836 116.485C6.78607 114.235 5.60502 111.183 5.60502 108V60C4.11847 60 2.69282 59.3679 1.64167 58.2426C0.590527 57.1174 0 55.5913 0 54V36C0 32.8174 1.18105 29.7652 3.28334 27.5147C5.38563 25.2643 8.23695 24 11.21 24H28.9779C28.3445 22.0724 28.0222 20.0434 28.0251 18C28.0251 13.2261 29.7967 8.64773 32.9501 5.27208C36.1035 1.89642 40.3805 0 44.8401 0C50.4451 0 55.3776 3 58.4603 7.44V7.38L61.6552 12L64.85 7.38V7.44C67.9328 3 72.8652 0 78.4702 0C82.9298 0 87.2068 1.89642 90.3603 5.27208C93.5137 8.64773 95.2853 13.2261 95.2853 18C95.2881 20.0434 94.9659 22.0724 94.3324 24H112.1C115.073 24 117.925 25.2643 120.027 27.5147C122.129 29.7652 123.31 32.8174 123.31 36V54C123.31 55.5913 122.72 57.1174 121.669 58.2426C120.618 59.3679 119.192 60 117.705 60ZM16.815 108H56.0502V60H16.815V108ZM106.495 108V60H67.2602V108H106.495ZM44.8401 12C43.3536 12 41.9279 12.6321 40.8768 13.7574C39.8256 14.8826 39.2351 16.4087 39.2351 18C39.2351 19.5913 39.8256 21.1174 40.8768 22.2426C41.9279 23.3679 43.3536 24 44.8401 24C46.3267 24 47.7523 23.3679 48.8035 22.2426C49.8546 21.1174 50.4451 19.5913 50.4451 18C50.4451 16.4087 49.8546 14.8826 48.8035 13.7574C47.7523 12.6321 46.3267 12 44.8401 12ZM78.4702 12C76.9837 12 75.558 12.6321 74.5069 13.7574C73.4557 14.8826 72.8652 16.4087 72.8652 18C72.8652 19.5913 73.4557 21.1174 74.5069 22.2426C75.558 23.3679 76.9837 24 78.4702 24C79.9568 24 81.3824 23.3679 82.4336 22.2426C83.4847 21.1174 84.0752 19.5913 84.0752 18C84.0752 16.4087 83.4847 14.8826 82.4336 13.7574C81.3824 12.6321 79.9568 12 78.4702 12ZM11.21 36V48H56.0502V36H11.21ZM67.2602 36V48H112.1V36H67.2602Z" fill="#0AB7A6" fill-opacity="0.09"/>
</svg>
