<svg width="25" height="25" viewBox="0 0 25 25" fill="none" xmlns="http://www.w3.org/2000/svg">
<path d="M22.6794 11.3139L22.5734 10.8644H12.8028V14.9997H18.6406C18.0345 17.8778 15.222 19.3928 12.9247 19.3928C11.2531 19.3928 9.49109 18.6897 8.32484 17.5596C7.70953 16.9538 7.21974 16.2325 6.88353 15.4372C6.54731 14.6419 6.37126 13.788 6.36547 12.9246C6.36547 11.1827 7.14828 9.44035 8.28734 8.29425C9.4264 7.14816 11.1467 6.50691 12.8572 6.50691C14.8161 6.50691 16.22 7.54707 16.745 8.02144L19.6836 5.09832C18.8216 4.34082 16.4534 2.43207 12.7625 2.43207C9.91484 2.43207 7.18437 3.52285 5.18844 5.51222C3.21875 7.47113 2.19922 10.3038 2.19922 12.9321C2.19922 15.5603 3.16391 18.2514 5.07266 20.2258C7.11219 22.3314 10.0006 23.4321 12.9748 23.4321C15.6809 23.4321 18.2459 22.3717 20.0741 20.448C21.8712 18.5542 22.8008 15.9339 22.8008 13.1871C22.8008 12.0307 22.6845 11.3439 22.6794 11.3139Z" fill="white"/>
</svg>
