<svg width="116" height="120" viewBox="0 0 116 120" fill="none" xmlns="http://www.w3.org/2000/svg">
<path d="M25.3687 52.5169C39.3577 52.5169 50.7373 40.7448 50.7373 26.2734C50.7373 11.802 39.3577 0.0299921 25.3687 0.0299921C11.3797 0.0299921 0 11.802 0 26.2734C0 40.7448 11.3797 52.5169 25.3687 52.5169ZM25.3687 15.0262C31.3847 15.0262 36.2409 20.05 36.2409 26.2734C36.2409 32.4969 31.3847 37.5206 25.3687 37.5206C19.3527 37.5206 14.4964 32.4969 14.4964 26.2734C14.4964 20.05 19.3527 15.0262 25.3687 15.0262ZM0.0144953 109.375L105.751 0L116 10.6023L10.2707 119.978L0.0144953 109.375ZM90.6023 67.5131C76.6133 67.5131 65.2337 79.2852 65.2337 93.7566C65.2337 108.228 76.6133 120 90.6023 120C104.591 120 115.971 108.228 115.971 93.7566C115.971 79.2852 104.591 67.5131 90.6023 67.5131ZM90.6023 105.004C84.5864 105.004 79.7301 99.98 79.7301 93.7566C79.7301 87.5331 84.5864 82.5094 90.6023 82.5094C96.6183 82.5094 101.475 87.5331 101.475 93.7566C101.475 99.98 96.6183 105.004 90.6023 105.004Z" fill="#0AB7A6" fill-opacity="0.09"/>
</svg>
